<?xml version="1.0" encoding="UTF-8"?>
<svg id="Camada_2" data-name="Camada 2" xmlns="http://www.w3.org/2000/svg" xmlns:xlink="http://www.w3.org/1999/xlink" viewBox="0 0 716.08 225.12">
  <defs>
    <linearGradient id="Gradiente_sem_nome_170" data-name="Gradiente sem nome 170" x1="56.27" y1="15.06" x2="168.85" y2="210.05" gradientUnits="userSpaceOnUse">
      <stop offset="0" stop-color="#15b3ff"/>
      <stop offset="1" stop-color="#00336a"/>
    </linearGradient>
    <linearGradient id="Gradiente_sem_nome_176" data-name="Gradiente sem nome 176" x1="259.51" y1="82.91" x2="306.64" y2="82.91" gradientUnits="userSpaceOnUse">
      <stop offset="0" stop-color="#205f9d"/>
      <stop offset="1" stop-color="#2262a1"/>
    </linearGradient>
    <linearGradient id="Gradiente_sem_nome_176-2" data-name="Gradiente sem nome 176" x1="310.77" y1="82.71" x2="375.76" y2="82.71" xlink:href="#Gradiente_sem_nome_176"/>
    <linearGradient id="Gradiente_sem_nome_176-3" data-name="Gradiente sem nome 176" x1="384.21" x2="423.86" xlink:href="#Gradiente_sem_nome_176"/>
    <linearGradient id="Gradiente_sem_nome_176-4" data-name="Gradiente sem nome 176" x1="427.22" x2="495.19" xlink:href="#Gradiente_sem_nome_176"/>
    <linearGradient id="Gradiente_sem_nome_176-5" data-name="Gradiente sem nome 176" x1="502.96" y1="82.67" x2="576.79" y2="82.67" xlink:href="#Gradiente_sem_nome_176"/>
    <linearGradient id="Gradiente_sem_nome_176-6" data-name="Gradiente sem nome 176" x1="580.53" y1="72.97" x2="645.52" y2="72.97" xlink:href="#Gradiente_sem_nome_176"/>
    <linearGradient id="Gradiente_sem_nome_176-7" data-name="Gradiente sem nome 176" x1="648.11" x2="716.08" xlink:href="#Gradiente_sem_nome_176"/>
    <linearGradient id="Gradiente_sem_nome_176-8" data-name="Gradiente sem nome 176" x1="267.11" y1="177.89" x2="272.12" y2="177.89" xlink:href="#Gradiente_sem_nome_176"/>
    <linearGradient id="Gradiente_sem_nome_176-9" data-name="Gradiente sem nome 176" x1="284.21" y1="177.66" x2="340.75" y2="177.66" xlink:href="#Gradiente_sem_nome_176"/>
    <linearGradient id="Gradiente_sem_nome_176-10" data-name="Gradiente sem nome 176" x1="348.96" y1="169.57" x2="401.32" y2="169.57" xlink:href="#Gradiente_sem_nome_176"/>
    <linearGradient id="Gradiente_sem_nome_176-11" data-name="Gradiente sem nome 176" x1="404.59" y1="178.08" x2="454.29" y2="178.08" xlink:href="#Gradiente_sem_nome_176"/>
    <linearGradient id="Gradiente_sem_nome_176-12" data-name="Gradiente sem nome 176" x1="462.96" y1="177.89" x2="494.5" y2="177.89" xlink:href="#Gradiente_sem_nome_176"/>
    <linearGradient id="Gradiente_sem_nome_176-13" data-name="Gradiente sem nome 176" x1="505.44" y1="177.89" x2="510.46" y2="177.89" xlink:href="#Gradiente_sem_nome_176"/>
    <linearGradient id="Gradiente_sem_nome_176-14" data-name="Gradiente sem nome 176" x1="522.39" y1="177.89" x2="557.27" y2="177.89" xlink:href="#Gradiente_sem_nome_176"/>
  </defs>
  <g id="Camada_1-2" data-name="Camada 1">
    <rect x="0" y="0" width="225.12" height="225.12" rx="112.56" ry="112.56" style="fill: url(#Gradiente_sem_nome_170); stroke-width: 0px;"/>
    <g>
      <polygon points="183.33 78.02 145.89 53.06 62.17 81.51 62.17 92.46 62.17 92.48 144.38 64.54 183.33 90.5 183.33 78.02" style="fill: #fff; stroke-width: 0px;"/>
      <polygon points="40.43 120.14 40.48 70.37 146.1 31.65 183.33 59.67 183.33 46.67 147.83 19.95 28.87 63.24 28.87 135.36 146.51 96.89 172.94 114.16 172.94 171.69 147.45 158.94 28.87 194.32 28.87 205.16 146.48 170.07 183.33 188.5 183.33 108.54 148.04 85.48 40.43 120.14" style="fill: #fff; stroke-width: 0px;"/>
      <polygon points="156.12 127.21 147.08 121.31 28.87 157.94 28.87 168.82 145.49 132.68 156.12 139.62 156.12 139.62 156.12 127.21" style="fill: #fff; stroke-width: 0px;"/>
    </g>
    <g>
      <g>
        <path d="M270.5,114.73c-4.13-1.38-7.79-3.34-10.99-5.9l5.28-8.83c2.5,2.11,5.31,3.76,8.45,4.94,3.14,1.19,6.4,1.78,9.79,1.78s6.35-.77,8.69-2.3c2.34-1.54,3.5-3.68,3.5-6.43s-1.2-4.93-3.6-6.53c-2.4-1.6-5.9-3.14-10.51-4.61-12.99-4.22-19.49-10.85-19.49-19.87,0-3.71.97-6.93,2.93-9.65,1.95-2.72,4.59-4.78,7.92-6.19,3.33-1.41,6.98-2.11,10.94-2.11s7.45.51,10.85,1.54c3.39,1.02,6.85,2.72,10.37,5.09l-4.9,8.45c-2.75-1.79-5.39-3.09-7.92-3.89-2.53-.8-5.14-1.2-7.82-1.2-3.07,0-5.65.64-7.73,1.92-2.08,1.28-3.12,3.11-3.12,5.47,0,2.69,1.14,4.79,3.41,6.29,2.27,1.5,5.58,2.99,9.94,4.46,6.34,2.05,11.28,4.64,14.83,7.78,3.55,3.14,5.33,7.3,5.33,12.48,0,3.97-1.02,7.41-3.07,10.32-2.05,2.91-4.83,5.15-8.35,6.72-3.52,1.57-7.46,2.35-11.81,2.35s-8.78-.69-12.91-2.06Z" style="fill: url(#Gradiente_sem_nome_176); stroke-width: 0px;"/>
        <path d="M375.76,115.26v.29h-11.81l-5.38-11.81h-30.62l-5.28,11.81h-11.9v-.19l30.82-65.47h3.46l30.72,65.38ZM338.9,79.26l-7.1,15.55h23.04l-7.1-15.55c-1.79-3.97-3.26-7.68-4.42-11.14-1.41,3.84-2.88,7.55-4.42,11.14Z" style="fill: url(#Gradiente_sem_nome_176-2); stroke-width: 0px;"/>
        <path d="M384.21,50.27h11.33v54.82h28.32v10.46h-39.65V50.27Z" style="fill: url(#Gradiente_sem_nome_176-3); stroke-width: 0px;"/>
        <path d="M443.68,112.33c-5.15-2.98-9.18-7.06-12.1-12.24-2.91-5.18-4.37-10.94-4.37-17.28s1.44-12.25,4.32-17.38c2.88-5.12,6.9-9.13,12.05-12.05,5.15-2.91,11.02-4.37,17.62-4.37s12.46,1.46,17.62,4.37c5.15,2.91,9.17,6.93,12.05,12.05,2.88,5.12,4.32,10.91,4.32,17.38s-1.44,12.1-4.32,17.28c-2.88,5.18-6.9,9.26-12.05,12.24-5.15,2.98-11.02,4.46-17.62,4.46s-12.37-1.49-17.52-4.46ZM473.01,103.35c3.39-2.11,6.01-4.96,7.87-8.54,1.86-3.58,2.78-7.58,2.78-12s-.93-8.51-2.78-12.1c-1.86-3.58-4.48-6.38-7.87-8.4-3.39-2.02-7.33-3.02-11.81-3.02s-8.4,1.01-11.76,3.02c-3.36,2.02-5.97,4.82-7.82,8.4-1.86,3.58-2.78,7.62-2.78,12.1s.93,8.42,2.78,12c1.86,3.58,4.48,6.43,7.87,8.54,3.39,2.11,7.3,3.17,11.71,3.17s8.42-1.06,11.81-3.17Z" style="fill: url(#Gradiente_sem_nome_176-4); stroke-width: 0px;"/>
        <path d="M576.79,115.55h-11.14l-5.18-35.33c-.45-3.39-.71-5.6-.77-6.62-.77,1.41-2.05,3.46-3.84,6.14l-14.88,22.66h-2.3l-14.78-22.66c-1.41-1.98-2.75-4.1-4.03-6.34-.06,1.22-.19,2.53-.38,3.94-.19,1.41-.32,2.4-.38,2.98l-4.99,35.23h-11.14l9.6-65.76h3.36l19.68,30.14c1.54,2.43,2.94,4.7,4.22,6.82,1.28-2.11,2.69-4.38,4.22-6.82l19.78-30.14h3.36l9.6,65.76Z" style="fill: url(#Gradiente_sem_nome_176-5); stroke-width: 0px;"/>
        <path d="M645.52,115.26v.29h-11.81l-5.38-11.81h-30.62l-5.28,11.81h-11.9v-.19l30.82-65.47h3.46l30.72,65.38ZM598.1,39.03c1.09-2.88,2.37-5.04,3.84-6.48,1.47-1.44,3.26-2.16,5.38-2.16,1.79,0,3.97.64,6.53,1.92,1.92.9,3.33,1.34,4.22,1.34,1.41,0,2.62-1.09,3.65-3.26l6.24,3.36c-2.18,5.7-5.25,8.54-9.22,8.54-1.73,0-3.62-.51-5.66-1.54-.19-.06-.66-.29-1.39-.67-.74-.38-1.39-.66-1.97-.82-.58-.16-1.09-.24-1.54-.24-.77,0-1.47.27-2.11.82-.64.54-1.25,1.46-1.82,2.74l-6.14-3.55ZM608.66,79.26l-7.1,15.55h23.04l-7.1-15.55c-1.79-3.97-3.26-7.68-4.42-11.14-1.41,3.84-2.88,7.55-4.42,11.14Z" style="fill: url(#Gradiente_sem_nome_176-6); stroke-width: 0px;"/>
        <path d="M664.58,112.33c-5.15-2.98-9.18-7.06-12.1-12.24-2.91-5.18-4.37-10.94-4.37-17.28s1.44-12.25,4.32-17.38c2.88-5.12,6.9-9.13,12.05-12.05,5.15-2.91,11.02-4.37,17.62-4.37s12.46,1.46,17.62,4.37c5.15,2.91,9.17,6.93,12.05,12.05,2.88,5.12,4.32,10.91,4.32,17.38s-1.44,12.1-4.32,17.28c-2.88,5.18-6.9,9.26-12.05,12.24-5.15,2.98-11.02,4.46-17.62,4.46s-12.37-1.49-17.52-4.46ZM693.91,103.35c3.39-2.11,6.01-4.96,7.87-8.54,1.86-3.58,2.78-7.58,2.78-12s-.93-8.51-2.78-12.1c-1.86-3.58-4.48-6.38-7.87-8.4-3.39-2.02-7.33-3.02-11.81-3.02s-8.4,1.01-11.76,3.02c-3.36,2.02-5.97,4.82-7.82,8.4-1.86,3.58-2.78,7.62-2.78,12.1s.93,8.42,2.78,12c1.86,3.58,4.48,6.43,7.87,8.54,3.39,2.11,7.3,3.17,11.71,3.17s8.42-1.06,11.81-3.17Z" style="fill: url(#Gradiente_sem_nome_176-7); stroke-width: 0px;"/>
      </g>
      <g>
        <path d="M267.11,152.05h5.02v51.68h-5.02v-51.68Z" style="fill: url(#Gradiente_sem_nome_176-8); stroke-width: 0px;"/>
        <path d="M340.75,203.73h-4.86l-5.02-35.64c-.3-2.13-.48-3.83-.53-5.09l-2.81,4.64-14.44,23.33h-1.14l-14.52-23.48-2.66-4.33c-.05.61-.28,2.25-.68,4.94l-4.94,35.64h-4.94l7.37-52.14h1.52l16.19,26.3c1.27,2.03,2.33,3.85,3.19,5.47.71-1.37,1.77-3.22,3.19-5.55l16.26-26.22h1.44l7.37,52.14Z" style="fill: url(#Gradiente_sem_nome_176-9); stroke-width: 0px;"/>
        <path d="M361.69,201.03c-3.98-2.41-7.09-5.66-9.35-9.77-2.25-4.1-3.38-8.59-3.38-13.45s1.11-9.63,3.34-13.68,5.33-7.23,9.31-9.54c3.98-2.3,8.47-3.46,13.49-3.46s9.59,1.15,13.57,3.46c3.98,2.31,7.08,5.48,9.31,9.54s3.34,8.61,3.34,13.68-1.12,9.41-3.34,13.49c-2.23,4.08-5.33,7.32-9.31,9.73-3.98,2.41-8.5,3.61-13.57,3.61s-9.44-1.2-13.41-3.61ZM386.16,197.04c3.22-1.98,5.71-4.66,7.49-8.06,1.77-3.39,2.66-7.12,2.66-11.17s-.89-7.98-2.66-11.32-4.27-5.97-7.49-7.87c-3.22-1.9-6.9-2.85-11.06-2.85s-7.76.95-10.98,2.85c-3.22,1.9-5.71,4.52-7.49,7.87-1.77,3.34-2.66,7.12-2.66,11.32s.9,7.78,2.7,11.17c1.8,3.4,4.29,6.08,7.49,8.06,3.19,1.98,6.84,2.96,10.94,2.96s7.84-.99,11.06-2.96ZM368.64,143.08l10.03-8.59,3.04,3.57-10.72,7.68-2.36-2.66Z" style="fill: url(#Gradiente_sem_nome_176-10); stroke-width: 0px;"/>
        <path d="M454.29,152.05v.15l-24.02,51.91h-1.67l-24.02-51.91v-.15h5.24l16.8,36.48c1.42,3.09,2.36,5.27,2.81,6.54.56-1.47,1.52-3.72,2.89-6.76l16.57-36.25h5.4Z" style="fill: url(#Gradiente_sem_nome_176-11); stroke-width: 0px;"/>
        <path d="M494.5,199.17v4.56h-31.54v-51.68h30.86v4.56h-25.84v18.39h22.72v4.48h-22.72v19.68h26.52Z" style="fill: url(#Gradiente_sem_nome_176-12); stroke-width: 0px;"/>
        <path d="M505.44,152.05h5.02v51.68h-5.02v-51.68Z" style="fill: url(#Gradiente_sem_nome_176-13); stroke-width: 0px;"/>
        <path d="M530.45,202.97c-3.09-1.11-5.78-2.63-8.06-4.56l2.58-3.95c1.98,1.77,4.27,3.14,6.88,4.1,2.61.96,5.38,1.44,8.32,1.44,3.39,0,6.26-.86,8.59-2.58,2.33-1.72,3.5-4.05,3.5-6.99,0-2.03-.56-3.72-1.67-5.09-1.12-1.37-2.55-2.5-4.29-3.38-1.75-.89-3.99-1.81-6.73-2.77-4.81-1.67-8.64-3.63-11.48-5.89-2.84-2.25-4.26-5.33-4.26-9.23,0-2.63.72-4.93,2.17-6.88,1.44-1.95,3.37-3.45,5.78-4.48,2.41-1.04,5.03-1.56,7.87-1.56s5.67.41,8.21,1.22c2.53.81,5.02,2.13,7.45,3.95l-2.28,3.8c-2.08-1.47-4.18-2.56-6.31-3.27-2.13-.71-4.41-1.06-6.84-1.06-2.99,0-5.56.71-7.71,2.13-2.15,1.42-3.23,3.4-3.23,5.93,0,1.98.57,3.62,1.71,4.94,1.14,1.32,2.53,2.38,4.18,3.19s3.84,1.7,6.57,2.66c5.07,1.82,8.98,3.88,11.74,6.16,2.76,2.28,4.14,5.42,4.14,9.42,0,2.94-.76,5.5-2.28,7.68-1.52,2.18-3.57,3.85-6.16,5.02s-5.47,1.75-8.66,1.75c-3.4,0-6.64-.56-9.73-1.67Z" style="fill: url(#Gradiente_sem_nome_176-14); stroke-width: 0px;"/>
      </g>
    </g>
  </g>
</svg>